<svg xmlns="http://www.w3.org/2000/svg" width="100" height="100" viewBox="0 0 100 100"><rect width="100%" height="100%" fill="#DDDDDD"/><path fill="#999999" d="M26.135 45.38h1.54v9.4h-.9q-.21 0-.35-.07t-.27-.23l-4.91-6.27q.04.43.04.8v5.77h-1.54v-9.4h.92q.11 0 .19.01t.14.04q.07.03.12.08.06.06.13.15l4.93 6.29q-.02-.23-.03-.45t-.01-.41zm6.33 2.63q.74 0 1.35.24.6.24 1.04.68.43.44.66 1.08.24.64.24 1.42 0 .8-.24 1.43-.23.64-.66 1.09-.44.45-1.04.69-.61.24-1.35.24-.75 0-1.36-.24t-1.05-.69q-.43-.45-.66-1.09-.24-.63-.24-1.43 0-.78.24-1.42.23-.64.66-1.08.44-.44 1.05-.68t1.36-.24m0 5.63q.83 0 1.23-.56t.4-1.63q0-1.08-.4-1.65-.4-.56-1.23-.56-.85 0-1.25.56-.41.57-.41 1.65 0 1.07.41 1.63.4.56 1.25.56m6.74 1.24q-.87 0-1.34-.49-.46-.49-.46-1.35v-3.73h-.69q-.13 0-.22-.08-.09-.09-.09-.25v-.64l1.07-.18.34-1.82q.04-.13.13-.2t.23-.07h.83v2.1h1.78v1.14h-1.78v3.62q0 .31.15.48.16.18.42.18.15 0 .25-.04.11-.03.18-.07t.13-.07q.06-.04.12-.04.07 0 .12.04.04.03.09.1l.49.78q-.36.29-.81.44-.46.15-.94.15m11.95-8.11h-4.17v2.78h3.52v1.4h-3.52v3.83h-1.76v-9.4h5.93zm4.13 1.24q.74 0 1.35.24.6.24 1.04.68.43.44.66 1.08.24.64.24 1.42 0 .8-.24 1.43-.23.64-.66 1.09-.44.45-1.04.69-.61.24-1.35.24-.75 0-1.36-.24t-1.04-.69q-.44-.45-.67-1.09-.24-.63-.24-1.43 0-.78.24-1.42.23-.64.67-1.08.43-.44 1.04-.68t1.36-.24m0 5.63q.83 0 1.23-.56t.4-1.63q0-1.08-.4-1.65-.4-.56-1.23-.56-.85 0-1.25.56-.41.57-.41 1.65 0 1.07.41 1.63.4.56 1.25.56m8.66-5.53h1.6v6.67h-.98q-.32 0-.4-.29l-.11-.54q-.41.42-.91.68-.49.25-1.16.25-.55 0-.97-.18-.41-.19-.7-.52-.29-.34-.43-.81-.15-.46-.15-1.02v-4.24h1.61v4.24q0 .61.28.94.28.34.85.34.41 0 .78-.19.36-.18.69-.51zm4.58.29.11.53q.2-.2.42-.37.23-.18.48-.3t.54-.18q.28-.07.62-.07.55 0 .97.18.42.19.7.52.29.34.43.8.15.47.15 1.03v4.24h-1.61v-4.24q0-.62-.28-.95-.28-.34-.85-.34-.41 0-.78.19-.36.19-.69.52v4.82h-1.6v-6.67h.98q.31 0 .41.29m10.13 4.4v-2.99q-.28-.33-.6-.46-.32-.14-.69-.14t-.66.14q-.29.13-.5.41-.21.27-.32.7t-.11 1q0 .59.1 1 .09.4.27.66.17.26.43.37.25.11.56.11.5 0 .85-.2.35-.21.67-.6m0-7.68h1.6v9.66h-.98q-.32 0-.4-.29l-.14-.65q-.4.47-.93.75-.52.29-1.21.29-.55 0-1.01-.23-.45-.23-.78-.66t-.51-1.07q-.17-.64-.17-1.46 0-.74.2-1.37.2-.64.58-1.11.37-.47.9-.73t1.18-.26q.56 0 .96.17.39.18.71.48z"/></svg>